<?xml version="1.0" encoding="UTF-8"?>
<svg width="500" height="400" viewBox="0 0 500 400" fill="none" xmlns="http://www.w3.org/2000/svg">
  <!-- Background -->
  <rect width="500" height="400" fill="#F8F9FA"/>
  
  <!-- Open Source Icon -->
  <g transform="translate(100, 100)">
    <!-- GitHub Octocat -->
    <path d="M150 50 C200 50, 250 100, 250 150 C250 200, 200 250, 150 250 C100 250, 50 200, 50 150 C50 100, 100 50, 150 50" 
          fill="#212529" stroke="#25C2A0" stroke-width="2"/>
    
    <!-- Cat Ears -->
    <path d="M120 30 L150 50 L180 30" stroke="#25C2A0" stroke-width="2" fill="none"/>
    <path d="M220 30 L250 50 L280 30" stroke="#25C2A0" stroke-width="2" fill="none"/>
    
    <!-- Cat Face -->
    <circle cx="120" cy="120" r="10" fill="#25C2A0"/>
    <circle cx="180" cy="120" r="10" fill="#25C2A0"/>
    <path d="M130 160 Q150 180, 170 160" stroke="#25C2A0" stroke-width="2" fill="none"/>
    
    <!-- Code Brackets -->
    <path d="M50 200 L70 220 L50 240" stroke="#25C2A0" stroke-width="2" fill="none"/>
    <path d="M250 200 L230 220 L250 240" stroke="#25C2A0" stroke-width="2" fill="none"/>
    
    <!-- Code Lines -->
    <rect x="80" y="210" width="140" height="4" fill="#25C2A0"/>
    <rect x="80" y="220" width="100" height="4" fill="#25C2A0"/>
    <rect x="80" y="230" width="120" height="4" fill="#25C2A0"/>
  </g>
</svg> 